# xmcd
#
# Track frame offsets:
#	150
#	13889
#	31642
#	45259
#	63511
#	76168
#	94807
#	108060
#	124631
#	139311
#	152058
#	168654
#	197070
#
# Disc length: 2824 seconds
#
# Revision: 1
# Processed by: cddbd v1.5.2PL0 Copyright (c) Steve Scherf et al.
# Submitted via: audiograbber 1.83.01
#
DISCID=9e0b060d
DTITLE=Jeff Turner - Every Song a Story
DYEAR=2003
DGENRE=Country
TTITLE0=(That's What You Get) For Loving Me
TTITLE1=Don't Think Twice. It's Alright.
TTITLE2=Snow On the Roof
TTITLE3=Cat's in the Cradle
TTITLE4=The Marvelous Toy
TTITLE5=The Unfortunate Man
TTITLE6=Hey Ho, What Do You Know
TTITLE7=We Don't Need More Songs (About Saving the World)
TTITLE8=21st Century Love Song
TTITLE9=I'm My Own Grandpa
TTITLE10=I Am, You Are, We're Australian
TTITLE11=And the Band Played Waltzing Mathilda
TTITLE12=The Box
EXTD=
EXTT0=
EXTT1=
EXTT2=
EXTT3=
EXTT4=
EXTT5=
EXTT6=
EXTT7=
EXTT8=
EXTT9=
EXTT10=
EXTT11=
EXTT12=
PLAYORDER=
